<?xml version="1.0" encoding="UTF-8" standalone="no"?>
<svg
   xmlns:dc="http://purl.org/dc/elements/1.1/"
   xmlns:cc="http://creativecommons.org/ns#"
   xmlns:rdf="http://www.w3.org/1999/02/22-rdf-syntax-ns#"
   xmlns:svg="http://www.w3.org/2000/svg"
   xmlns="http://www.w3.org/2000/svg"
   xmlns:sodipodi="http://sodipodi.sourceforge.net/DTD/sodipodi-0.dtd"
   xmlns:inkscape="http://www.inkscape.org/namespaces/inkscape"
   viewBox="0 0 67.733 67.733"
   version="1.1"
   id="svg821"
   sodipodi:docname="bot.svg"
   inkscape:version="0.92.4 (5da689c313, 2019-01-14)">
  <metadata
     id="metadata825">
    <rdf:RDF>
      <cc:Work
         rdf:about="">
        <dc:format>image/svg+xml</dc:format>
        <dc:type
           rdf:resource="http://purl.org/dc/dcmitype/StillImage" />
      </cc:Work>
    </rdf:RDF>
  </metadata>
  <sodipodi:namedview
     pagecolor="#ffffff"
     bordercolor="#666666"
     borderopacity="1"
     objecttolerance="10"
     gridtolerance="10"
     guidetolerance="10"
     inkscape:pageopacity="0"
     inkscape:pageshadow="2"
     inkscape:window-width="1920"
     inkscape:window-height="1001"
     id="namedview823"
     showgrid="false"
     inkscape:zoom="8"
     inkscape:cx="16.81892"
     inkscape:cy="32.261116"
     inkscape:window-x="-9"
     inkscape:window-y="-9"
     inkscape:window-maximized="1"
     inkscape:current-layer="svg821" />
  <defs
     id="defs815" />
  <path
     fill="#1976d2"
     d="M0 0h67.733v67.733H0z"
     id="path817" />
  <path
     d="m 33.859,15.772 c -4.58,0.004 -9.168,1.566 -12.889,4.689 -1.897,1.592 -3.424,3.475 -4.576,5.535 -0.210752,0.374575 -0.409519,0.755769 -0.596,1.143 -0.168,-0.023 -0.331,-0.052 -0.503,-0.052 -2.716,0 -4.951,1.983 -5.344,4.585 -0.1544564,2.441189 -0.062,5.006728 -0.062,7.506 0,2.995 2.411,5.406 5.406,5.406 0.172,0 0.334,-0.037 0.501,-0.052 2.301208,4.210528 6.058749,7.315426 9.329,7.428 5.828,-0.0017 11.656,-9.14e-4 17.484,0 4.604439,-0.06037 7.592748,-3.782836 9.329,-7.428 0.167,0.015 0.329,0.052 0.501,0.052 2.903,0 5.257,-2.265 5.399,-5.131 0.0046,-0.0916 0.0069,-0.18329 0.007,-0.275 -0.08244,-2.459079 0.14314,-5.124009 -0.063,-7.506 -0.393,-2.602 -2.629,-4.585 -5.344,-4.585 -0.172,0 -0.335,0.029 -0.503,0.052 -0.15,-0.312 -0.308,-0.62 -0.474,-0.925 -1.191073,-2.195511 -2.784829,-4.147166 -4.698,-5.753 -3.721,-3.122 -8.309,-4.685 -12.889,-4.689 z m 0.008,2.974 c 2.728893,0.0097 5.590504,0.766013 7.805,1.891 3.426407,1.809724 6.120371,4.623452 7.706,8.042 0.103,0.223 0.201,0.448 0.294,0.675 1.743368,4.473344 1.670285,9.340592 -0.305,13.652 -0.107521,0.232485 -0.220216,0.462542 -0.338,0.69 -1.630867,2.836527 -3.987412,5.191351 -6.418,5.286 l -4.953,-0.044 c -0.408,-0.613 -1.068,-1.041 -1.835,-1.14 -1.261487,-0.06477 -2.636953,-0.0291 -3.893,-0.002 -0.784,0.102 -1.444,0.53 -1.852,1.143 l -4.953,0.044 c -3.193655,-0.08216 -5.130699,-2.803307 -6.418,-5.285 -0.237,-0.456 -0.451,-0.919 -0.644,-1.388 -0.56937,-1.385465 -0.953353,-2.84003 -1.142,-4.326 -0.360254,-2.789971 0.03333,-5.363979 0.877,-7.942 0.249,-0.69 0.543,-1.366 0.881,-2.023 2.150352,-3.369948 4.883283,-6.1612 8.055,-7.707 2.242417,-0.999255 4.960912,-1.545835 7.133,-1.564 z m -8.146,6.696 c -1.273746,0.517351 -2.076695,1.564613 -2.825,2.542 -1.708,2.385 -2.721,5.304 -2.721,8.376 0,2.853 0.873,6.421 2.366,6.685 0.201102,0.04242 0.358057,0.03677 0.555,0.057 0.142871,0.0074 0.285962,0.0098 2.239131,-0.172545 1.953168,-0.182346 5.08425,-1.321449 8.531869,-1.290455 3.478678,0.03127 7.265492,1.287412 8.877246,1.380206 0.820305,0.147998 1.804448,0.169084 2.447754,0.02579 1.493,-0.264 2.366,-3.833 2.366,-6.685 -0.19258,-4.222674 -1.217345,-6.643212 -3.434488,-9.77028 C 43.51458,25.895154 42.481908,25.067941 40.930436,25.13605 39.378964,25.20416 36.671289,26.369861 33.872,26.421 31.999866,26.42 30.003095,25.735331 28.396,25.418 27.408097,25.244585 26.606631,25.195985 25.721,25.442 Z m 1.068,6.259 c 0.917695,-3.41e-4 1.76181,0.502136 2.199,1.309 0.07753,0.143129 0.140827,0.293515 0.189,0.449 0.429831,1.638282 -0.806088,3.212828 -2.388,3.245 -1.122,-10e-4 -2.071,-0.74 -2.388,-1.758 -0.131317,-0.348416 -0.08637,-0.670757 -0.1,-0.999 0.01694,-0.1656 0.05044,-0.329085 0.1,-0.488 0.317,-1.018 1.266,-1.757 2.388,-1.758 z m 14.157,0 c 1.381,0.001 2.5,1.12 2.501,2.501 5.53e-4,1.381493 -1.119507,2.501553 -2.501,2.501 -1.381,-0.001 -2.501,-1.12 -2.501,-2.501 10e-4,-1.295 0.985,-2.36 2.245,-2.488 0.08506,-0.0087 0.170502,-0.013 0.256,-0.013 z"
     id="path819"
     style="fill:#ffffff;fill-opacity:1;fill-rule:evenodd"
     inkscape:connector-curvature="0"
     sodipodi:nodetypes="ccccsccsccccscccscccccccccccccccccccccccccccscccscccczccccccccccccccccc" />
</svg>
