<?xml version="1.0" encoding="UTF-8" standalone="no"?>
<!-- Created with Inkscape (http://www.inkscape.org/) -->

<svg
   xmlns:dc="http://purl.org/dc/elements/1.1/"
   xmlns:cc="http://creativecommons.org/ns#"
   xmlns:rdf="http://www.w3.org/1999/02/22-rdf-syntax-ns#"
   xmlns:svg="http://www.w3.org/2000/svg"
   xmlns="http://www.w3.org/2000/svg"
   xmlns:sodipodi="http://sodipodi.sourceforge.net/DTD/sodipodi-0.dtd"
   xmlns:inkscape="http://www.inkscape.org/namespaces/inkscape"
   width="256"
   height="256"
   viewBox="0 0 67.733332 67.733335"
   version="1.1"
   id="svg8"
   sodipodi:docname="bot.svg"
   inkscape:version="0.92.4 (5da689c313, 2019-01-14)">
  <defs
     id="defs2" />
  <sodipodi:namedview
     id="base"
     pagecolor="#ffffff"
     bordercolor="#666666"
     borderopacity="1.0"
     inkscape:pageopacity="0.0"
     inkscape:pageshadow="2"
     inkscape:zoom="0.98994949"
     inkscape:cx="322.99874"
     inkscape:cy="120.78425"
     inkscape:document-units="mm"
     inkscape:current-layer="layer1"
     showgrid="false"
     units="px"
     inkscape:window-width="1920"
     inkscape:window-height="1001"
     inkscape:window-x="-9"
     inkscape:window-y="-9"
     inkscape:window-maximized="1" />
  <metadata
     id="metadata5">
    <rdf:RDF>
      <cc:Work
         rdf:about="">
        <dc:format>image/svg+xml</dc:format>
        <dc:type
           rdf:resource="http://purl.org/dc/dcmitype/StillImage" />
        <dc:title />
      </cc:Work>
    </rdf:RDF>
  </metadata>
  <g
     inkscape:label="Capa 1"
     inkscape:groupmode="layer"
     id="layer1"
     transform="translate(0,-229.26665)">
    <rect
       style="opacity:1;fill:#f0f0f0;fill-opacity:1;stroke:none;stroke-width:0.34395832;stroke-miterlimit:4;stroke-dasharray:none;stroke-opacity:1"
       id="rect833"
       width="67.73333"
       height="67.733337"
       x="0"
       y="229.26665" />
    <path
       style="opacity:1;fill:#899fb7;fill-opacity:1;stroke:none;stroke-width:0.34395829;stroke-miterlimit:4;stroke-dasharray:none;stroke-opacity:1"
       d="m 35.193808,238.42679 -2.694876,0.0347 -4.498362,0.0241 c -4.426719,0.0237 -4.506166,0.0266 -4.990222,0.20928 -1.44587,0.54556 -2.508251,1.60846 -3.053559,3.05412 -0.178404,0.47296 -0.186605,0.61392 -0.210957,3.66349 l -0.02518,3.17163 H 19.26908 18.817509 v -1.00331 c 0,-1.14702 -0.09188,-1.43913 -0.565163,-1.80013 -0.239553,-0.18274 -0.379613,-0.22326 -0.769965,-0.22326 -0.515473,0 -0.782379,0.13788 -1.105705,0.57075 -0.165297,0.22131 -0.172099,0.34314 -0.194729,3.67412 -0.02279,3.35648 -0.01883,3.45407 0.151083,3.80506 0.473303,0.97762 1.840477,0.98049 2.312692,0.005 0.144986,-0.29953 0.171787,-0.51252 0.171787,-1.36926 v -1.0145 l 0.435344,0.0252 0.435343,0.0252 0.04309,3.15093 c 0.04073,2.96734 0.05388,3.18221 0.226065,3.68978 0.511408,1.5075 1.84921,2.7326 3.437423,3.14869 v 5.7e-4 c 0.579065,0.15192 1.027054,0.15847 10.389487,0.16172 10.85416,0.003 10.406067,0.0243 11.562903,-0.54502 0.83365,-0.41026 1.672988,-1.25083 2.100054,-2.10285 0.508131,-1.01377 0.554695,-1.40049 0.556211,-4.66848 l 0.0011,-2.88568 0.435343,0.0252 0.435343,0.0252 0.04141,1.11913 c 0.0436,1.17722 0.09544,1.35983 0.46668,1.65184 0.839982,0.66074 2.012996,0.15786 2.143702,-0.91881 0.02945,-0.24349 0.04242,-1.84194 0.02796,-3.55213 -0.02581,-3.0735 -0.02848,-3.11296 -0.215991,-3.41448 -0.254582,-0.40942 -0.820964,-0.68508 -1.280852,-0.62336 -0.394548,0.0529 -0.692343,0.25198 -0.954621,0.63735 -0.169576,0.24916 -0.186895,0.37096 -0.186895,1.3396 v 1.06598 H 48.46056 48.004515 v -2.88906 c 0,-2.60548 -0.01622,-2.95156 -0.163955,-3.52919 -0.216028,-0.84466 -0.598475,-1.54645 -1.186843,-2.17616 -0.562179,-0.6017 -1.099704,-0.9656 -1.867836,-1.26462 l -0.55397,-0.21544 -4.519067,-0.0414 z m -6.63591,5.38919 c 0.867414,0 0.947961,0.0152 1.46271,0.26859 1.031036,0.50758 1.675835,1.28334 1.946734,2.34347 0.41181,1.61157 -0.380788,3.27109 -1.927149,4.0356 -0.503146,0.24874 -0.69836,0.29851 -1.285327,0.32623 -1.536217,0.0725 -2.720905,-0.63319 -3.408884,-2.03067 -0.253191,-0.51429 -0.268033,-0.59622 -0.268033,-1.45879 0,-0.85521 0.01697,-0.94939 0.264116,-1.4711 0.36702,-0.77477 0.908314,-1.32675 1.672546,-1.70445 0.607824,-0.30028 0.650506,-0.30888 1.543287,-0.30888 z m 10.613315,0 c 0.867411,0 0.948519,0.0152 1.463271,0.26859 1.031039,0.50758 1.675274,1.28334 1.946175,2.34347 0.411805,1.61157 -0.380796,3.27109 -1.927152,4.0356 -0.503146,0.24874 -0.698357,0.29851 -1.285327,0.32623 -1.536205,0.0725 -2.720908,-0.63319 -3.408882,-2.03067 -0.253196,-0.51429 -0.268034,-0.59622 -0.268034,-1.45879 0,-0.85521 0.01696,-0.94939 0.264117,-1.4711 0.367022,-0.77477 0.908312,-1.32675 1.672547,-1.70445 0.607827,-0.30028 0.650518,-0.30888 1.543285,-0.30888 z m -9.794668,9.70178 h 4.457515 c 4.392644,0 4.460702,0.003 4.691414,0.17347 0.814097,0.60321 0.814062,1.61979 0,2.22316 -0.229732,0.17025 -0.314851,0.17406 -4.602441,0.19193 -4.238362,0.0177 -4.376767,0.0133 -4.681902,-0.14884 -0.841558,-0.44727 -0.928046,-1.62858 -0.161714,-2.21309 z m -10.352555,6.99235 c -7.006774,0.70102 -5.994726,6.32222 -7.208348,12.45933 -2.2771903,11.51549 2.791511,15.09028 11.572973,14.85092 4.829149,-0.13164 17.213769,0.0824 21.098489,0 7.462097,-0.15827 13.393143,-1.36541 11.675934,-13.62211 -1.187814,-8.47811 -1.889985,-12.48301 -7.992861,-13.07933 -0.408361,1.09608 -1.710735,2.44084 -2.891845,2.44084 H 22.7356 c -1.426988,0 -3.460285,-1.9011 -3.71161,-3.04965 z m 14.857073,10.96305 a 1.7535639,1.6958671 0 0 1 1.753686,1.69549 1.7535639,1.6958671 0 0 1 -0.227746,0.83432 1.7535639,1.6958671 0 0 1 -1.554478,0.91433 1.7535639,1.6958671 0 0 1 -1.753683,-1.69605 1.7535639,1.6958671 0 0 1 0.226065,-0.8304 1.7535639,1.6958671 0 0 1 1.556156,-0.91769 z m 6.858058,0 a 1.753564,1.6958671 0 0 1 1.753686,1.69549 1.753564,1.6958671 0 0 1 -1.753686,1.69605 1.753564,1.6958671 0 0 1 -1.753683,-1.69605 1.753564,1.6958671 0 0 1 1.753683,-1.69549 z m -13.744654,0.052 a 1.7535639,1.695867 0 0 1 1.753125,1.69605 1.7535639,1.695867 0 0 1 -1.753125,1.69605 1.7535639,1.695867 0 0 1 -1.753684,-1.69605 1.7535639,1.695867 0 0 1 1.753684,-1.69605 z"
       id="path826"
       inkscape:connector-curvature="0" />
  </g>
</svg>
