<?xml version="1.0" encoding="UTF-8" standalone="no"?>
<svg
   xmlns:dc="http://purl.org/dc/elements/1.1/"
   xmlns:cc="http://creativecommons.org/ns#"
   xmlns:rdf="http://www.w3.org/1999/02/22-rdf-syntax-ns#"
   xmlns:svg="http://www.w3.org/2000/svg"
   xmlns="http://www.w3.org/2000/svg"
   xmlns:sodipodi="http://sodipodi.sourceforge.net/DTD/sodipodi-0.dtd"
   xmlns:inkscape="http://www.inkscape.org/namespaces/inkscape"
   width="45"
   height="45"
   version="1.1"
   id="svg4"
   sodipodi:docname="bp.svg"
   inkscape:version="0.92.4 (5da689c313, 2019-01-14)">
  <metadata
     id="metadata10">
    <rdf:RDF>
      <cc:Work
         rdf:about="">
        <dc:format>image/svg+xml</dc:format>
        <dc:type
           rdf:resource="http://purl.org/dc/dcmitype/StillImage" />
      </cc:Work>
    </rdf:RDF>
  </metadata>
  <defs
     id="defs8" />
  <sodipodi:namedview
     pagecolor="#ffffff"
     bordercolor="#666666"
     borderopacity="1"
     objecttolerance="10"
     gridtolerance="10"
     guidetolerance="10"
     inkscape:pageopacity="0"
     inkscape:pageshadow="2"
     inkscape:window-width="1920"
     inkscape:window-height="1001"
     id="namedview6"
     showgrid="false"
     inkscape:zoom="14.833529"
     inkscape:cx="30.364235"
     inkscape:cy="20.373105"
     inkscape:window-x="-9"
     inkscape:window-y="-9"
     inkscape:window-maximized="1"
     inkscape:current-layer="svg4" />
  <path
     fill="#5a5a5a"
     stroke="#323232"
     stroke-width="1.3"
     d="M10.26 39.04c.27-3.17.65-6 4.67-8.6 3.25-2.1 3.53-4.36 4.25-6.82h-3.2l-.95-2.48 3.43-2.28c-1.95-1.71-2.56-3.39-2.35-5.32a6.07 6.07 0 013.23-4.45 6.87 6.87 0 015.94.07c1.6.83 3 2.59 3.16 4.38.19 1.95-.72 4.3-2.49 5.33l3.3 2.27-.8 2.48h-2.97c.53 2.2 1.26 4.96 3.4 6.8 2.71 2.31 4.76 2.1 5.63 8.62z"
     id="path2"
     style="stroke:#3c3c3c;stroke-opacity:1" />
</svg>
