<?xml version="1.0" encoding="UTF-8" standalone="no"?>
<!-- Created with Inkscape (http://www.inkscape.org/) -->

<svg
   xmlns:dc="http://purl.org/dc/elements/1.1/"
   xmlns:cc="http://creativecommons.org/ns#"
   xmlns:rdf="http://www.w3.org/1999/02/22-rdf-syntax-ns#"
   xmlns:svg="http://www.w3.org/2000/svg"
   xmlns="http://www.w3.org/2000/svg"
   xmlns:sodipodi="http://sodipodi.sourceforge.net/DTD/sodipodi-0.dtd"
   xmlns:inkscape="http://www.inkscape.org/namespaces/inkscape"
   width="256"
   height="256"
   viewBox="0 0 67.733332 67.733335"
   version="1.1"
   id="svg8"
   sodipodi:docname="nopp.svg"
   inkscape:version="0.92.4 (5da689c313, 2019-01-14)">
  <defs
     id="defs2" />
  <sodipodi:namedview
     id="base"
     pagecolor="#ffffff"
     bordercolor="#666666"
     borderopacity="1.0"
     inkscape:pageopacity="0.0"
     inkscape:pageshadow="2"
     inkscape:zoom="1.4"
     inkscape:cx="231.18962"
     inkscape:cy="78.498414"
     inkscape:document-units="mm"
     inkscape:current-layer="layer1"
     showgrid="false"
     units="px"
     inkscape:window-width="1920"
     inkscape:window-height="1001"
     inkscape:window-x="-9"
     inkscape:window-y="-9"
     inkscape:window-maximized="1" />
  <metadata
     id="metadata5">
    <rdf:RDF>
      <cc:Work
         rdf:about="">
        <dc:format>image/svg+xml</dc:format>
        <dc:type
           rdf:resource="http://purl.org/dc/dcmitype/StillImage" />
        <dc:title></dc:title>
      </cc:Work>
    </rdf:RDF>
  </metadata>
  <g
     inkscape:label="Capa 1"
     inkscape:groupmode="layer"
     id="layer1"
     transform="translate(0,-229.26665)">
    <rect
       style="opacity:1;fill:#f0f0f0;fill-opacity:1;stroke:none;stroke-width:0.34395832;stroke-miterlimit:4;stroke-dasharray:none;stroke-opacity:1"
       id="rect833"
       width="67.73333"
       height="67.733337"
       x="0"
       y="229.26665" />
    <path
       style="opacity:1;fill:#a0a0a0;fill-opacity:1;stroke:none;stroke-width:0.34395832;stroke-miterlimit:4;stroke-dasharray:none;stroke-opacity:1"
       d="m 33.980073,240.56597 a 11.113632,11.113632 0 0 0 -11.113782,11.11379 11.113632,11.113632 0 0 0 11.113782,11.11352 11.113632,11.113632 0 0 0 11.113521,-11.11352 11.113632,11.113632 0 0 0 -11.113521,-11.11379 z m -10.546352,20.43035 c -6.470805,0.64739 -8.810543,5.30411 -9.931331,10.97179 -2.103001,10.63463 2.578338,13.93561 10.68808,13.71456 4.459751,-0.12157 15.896724,0.0761 19.48429,0 6.891296,-0.14617 12.36859,-1.26055 10.782735,-12.57969 -1.096954,-7.8296 -4.4846,-11.46156 -10.120647,-12.01226 -5.513945,3.90215 -11.188961,7.36875 -20.903127,-0.0944 z"
       id="path826"
       inkscape:connector-curvature="0" />
  </g>
</svg>
