<svg xmlns="http://www.w3.org/2000/svg" width="45" height="45" fill="#f3f3f3" stroke="none" stroke-width="1.3" xmlns:v="https://vecta.io/nano"><path d="M20.83 6.07v.049 2.762h-2.67l.039 3.799h2.631v3.07C10.2 12.18 3.081 20.589 9.551 26.539c1.63 1.5 3.6 3.24 4.6 5.4h.305c-4.911.583-4.246 4.229-4.154 7h12.418V6.07c-.63-.001-1.259.007-1.889 0zm-4.24 13.879c1.038.002 2.255.363 3.461 1.221l-.07 5.67h-2.18c-5.714-3.496-4.304-6.863-1.211-6.891z"/><path d="M20.18 5.412v.658.049V8.23h-2.676l.053 5.1h2.623v1.623c-5.12-1.438-9.494-.309-11.871 2.172-1.257 1.311-1.955 2.989-1.869 4.748s.953 3.565 2.67 5.145c1.443 1.328 3.081 2.807 4.08 4.498-.446.118-.861.257-1.217.439-.963.493-1.594 1.234-1.945 2.051-.702 1.633-.425 3.493-.377 4.955l.021.629h.629 12.418v-1.301H10.932c-.061-1.368-.14-2.767.291-3.77.249-.579.63-1.044 1.342-1.408.47-.241 1.114-.421 1.932-.521h8.223v-1.391H15.9c-.518 0-.985.034-1.428.082-1.121-2.127-2.96-3.818-4.482-5.219-1.518-1.396-2.185-2.872-2.252-4.252s.465-2.697 1.508-3.785c2.087-2.177 6.25-3.382 11.377-1.66l.857.289v-4.625h-2.637l-.025-2.5h2.662V6.721h1.238V5.42c-.626 0-1.249.007-1.881 0l-.658-.008zm-3.6 13.889v.006c-.885.009-1.693.246-2.305.723s-1.015 1.218-1.033 2.047c-.036 1.658 1.259 3.507 4.219 5.318l.156.096h3.004l.084-6.652-.279-.197c-1.302-.925-2.641-1.332-3.826-1.336v-.004h-.004-.016zm.016 1.301c.811.003 1.793.308 2.799.953l-.057 4.635h-1.312c-2.631-1.651-3.501-3.197-3.482-4.086.01-.454.188-.78.531-1.047s.869-.449 1.521-.455z" fill="#646464"/><path d="M24.607 6.07v.049 2.762h2.67l-.039 3.799h-2.631v3.07c10.63-3.57 17.749 4.839 11.279 10.789-1.63 1.5-3.6 3.24-4.6 5.4h-.305c4.911.583 4.246 4.229 4.154 7H22.719V6.07h1.889zm4.24 13.879c-1.038.002-2.255.363-3.461 1.221l.07 5.67h2.18c5.714-3.496 4.304-6.863 1.211-6.891z" fill="#5a5a5a"/><path d="M25.258 5.412v.658.049V8.23h2.676l-.053 5.1h-2.623v1.623c5.12-1.438 9.494-.309 11.871 2.172 1.257 1.311 1.955 2.989 1.869 4.748s-.953 3.565-2.67 5.145c-1.443 1.328-3.081 2.807-4.08 4.498.446.118.861.257 1.217.439.963.493 1.594 1.234 1.945 2.051.702 1.633.425 3.493.377 4.955l-.021.629h-.629-12.418v-1.301h11.787c.061-1.368.14-2.767-.291-3.77-.249-.579-.63-1.044-1.342-1.408-.47-.241-1.114-.421-1.932-.521h-8.223v-1.391h6.818c.518 0 .985.034 1.428.082 1.121-2.127 2.96-3.818 4.482-5.219 1.518-1.396 2.185-2.872 2.252-4.252s-.465-2.697-1.508-3.785c-2.087-2.177-6.25-3.382-11.377-1.66l-.857.289v-4.625h2.637l.025-2.5h-2.662V6.721h-1.238V5.42H24.6zm3.6 13.889v.006c.885.009 1.693.246 2.305.723s1.015 1.218 1.033 2.047c.036 1.658-1.259 3.507-4.219 5.318l-.156.096h-3.004l-.084-6.652.279-.197c1.302-.925 2.641-1.332 3.826-1.336v-.004h.004zm-.016 1.301c-.811.003-1.793.308-2.799.953l.057 4.635h1.313c2.631-1.651 3.501-3.197 3.482-4.086-.01-.454-.188-.78-.531-1.047s-.869-.449-1.521-.455z" fill="#323232"/></svg>