<svg xmlns="http://www.w3.org/2000/svg" width="45" height="45" xmlns:v="https://vecta.io/nano"><path fill="#fff" stroke="#505050" stroke-width="1.3" d="M15.77 31.97c.05-2 .76-3.96 3.58-5.72 5.33-4.77 2.9-6.72 2.9-6.72-2 2.37-2.15 2.99-5.02 3.37-2.88.37-2.63 3.3-4.3 2.61-3.56-1.04-5.46-3.04-3.64-5.22 3.08-2.4 4.32-6.68 4.91-8.48s1.85-1.5 2.62-2.72c.78-1.22-.15-2.16 1.81-3.24l3.2 3.2c7.97.46 10.88 6.15 12.01 9.67 1.13 3.53-.7 9.1-1.57 13.3z"/><path fill="#505050" d="M16.77 15.1c.99-4.72 4.4-1.87 3.04-.51-.4.4-1.53.26-3.04.51z"/><path fill="#fff" fill-rule="evenodd" stroke="#505050" stroke-width="1.3" d="M11.92 38.97c-.11-3.02-.9-7.09 5.59-7.09h13c5.92.03 6.02 3.66 5.86 7.09z"/></svg>