<svg xmlns="http://www.w3.org/2000/svg" width="44.999" height="44.999" viewBox="0 0 11.906 11.906" xmlns:v="https://vecta.io/nano"><path d="M5.93 2.185c-.02 0-.04.002-.059.003l-.178.012-.099.015-.082.015a1.81 1.81 0 0 0-.177.048c-.084.027-.166.058-.246.097-.034.021-.065.045-.097.068l-.037.026-.055.041c-.324.248-.548.61-.613 1.021a1.53 1.53 0 0 0 .022.467c.054.377.25.723.599.944l-.045.029c-.168.09-.309.184-.42.279L4 5.542l.252.656h.717l.066.003-.862 1.658-.196.144c-1.064.688-1.164 1.437-1.236 2.275l2.343.017 3.975-.014c-.071-.839-.172-1.587-1.236-2.275-.072-.046-.131-.094-.192-.141l-.865-1.664h.781l.252-.656-.418-.277a2.39 2.39 0 0 0-.492-.326c.349-.218.546-.562.602-.936a1.53 1.53 0 0 0 .023-.471c-.063-.396-.273-.747-.579-.994-.069-.06-.142-.117-.223-.167-.247-.122-.514-.184-.782-.188z" fill="#fff" stroke="#505050" stroke-width=".344"/></svg>