<svg xmlns="http://www.w3.org/2000/svg" width="45" height="45" fill="#f3f3f3" stroke="#646464" stroke-width="1.3" xmlns:v="https://vecta.io/nano"><path d="M22.5 10.06a1.9 1.9 0 0 0-1.52.77 1.9 1.9 0 0 0-.25.44l-.02.04a1.9 1.9 0 0 0-.07.25v.04a1.87 1.87 0 0 0-.02.63 1.86 1.86 0 0 0 .21.64l.1.16.01.02.1.13h0a1.9 1.9 0 0 0 .18.19l-1.15 11.86L16.97 14a1.9 1.9 0 1 0-2.47.37l.76 10.35-4.65-8.62a1.9 1.9 0 1 0-2.31.91l3.68 10.33c2 1.86 2.85 3.31 3.08 4.55l15.35.16c-.04-.96.49-2.68 2.61-4.71l3.69-10.33a1.9 1.9 0 1 0-2.32-.9l-4.65 8.61.76-10.35a1.9 1.9 0 1 0-2.46-.37l-3.1 11.22-1.16-11.86a1.9 1.9 0 0 0 .3-.34 1.9 1.9 0 0 0 .16-.3l.02-.04a1.9 1.9 0 0 0 .1-1.1v-.03a1.9 1.9 0 0 0-1.49-1.46 1.93 1.93 0 0 0-.37-.04z"/><path fill-rule="evenodd" d="M10.3 38.94c-.1-3.02-.9-7.09 5.6-7.09h13c5.91.03 6.02 3.66 5.85 7.09z"/></svg>