<svg xmlns="http://www.w3.org/2000/svg" width="45" height="45" fill="#5a5a5a" stroke="#323232" stroke-width="1.3" xmlns:v="https://vecta.io/nano"><path d="M20.83 6.07v.051 2.818h-2.67l.039 3.879h2.631v3.133C10.2 12.307 3.081 20.893 9.551 26.967c1.513 1.421 3.308 3.057 4.359 5.047-4.324.78-3.698 4.26-3.609 6.926H34.75c.146-2.946.074-6.032-3.691-6.865 1.046-2.017 2.863-3.672 4.391-5.107 6.47-6.074-.649-14.66-11.279-11.025v-3.133h2.619l.051-3.869h-2.67V6.07l-1.67.02-1.67-.02zm-4.24 14.17c1.038.002 2.255.369 3.461 1.244l-.07 5.789h-2.18c-5.714-3.569-4.304-7.005-1.211-7.033zm11.82 0c3.093.028 4.503 3.464-1.211 7.033h-2.18l-.07-5.789c1.206-.875 2.423-1.242 3.461-1.244z"/></svg>