<svg xmlns="http://www.w3.org/2000/svg" width="45" height="45" fill="#6e6e6e" stroke="#505050" stroke-width="1.3" xmlns:v="https://vecta.io/nano"><path d="M10.3 38.94c-.1-3.02-.9-7.09 5.6-7.09h13c5.91.03 6.02 3.66 5.85 7.09z" fill-rule="evenodd"/><path d="M20.83 6.07v.05h0v2.76h-2.67l.04 3.8h2.63v3.07C10.2 12.18 3.08 20.59 9.55 26.54c1.63 1.5 3.6 3.24 4.6 5.4h16.7c1-2.16 2.97-3.9 4.6-5.4 6.47-5.95-.65-14.36-11.28-10.8v-3.07h2.62l.05-3.79h-2.67V6.07l-1.67.02zm-4.25 13.88c1.04 0 2.26.36 3.47 1.22l-.07 5.67H17.8c-5.72-3.5-4.3-6.87-1.2-6.89zm11.84 0c3.1.02 4.51 3.39-1.22 6.89h-2.18l-.07-5.67a6.03 6.03 0 0 1 3.47-1.22z"/></svg>