<svg xmlns="http://www.w3.org/2000/svg" width="45" height="45" xmlns:v="https://vecta.io/nano"><g fill="#6e6e6e" stroke="#505050" stroke-width="1.3"><path d="M15.77 32.02c.05-2.01.76-3.99 3.58-5.75 5.33-4.77 2.9-6.72 2.9-6.72-2 2.37-2.15 2.99-5.02 3.37-2.88.37-2.63 3.3-4.3 2.61-3.56-1.04-5.46-3.04-3.64-5.22 3.08-2.4 4.32-6.68 4.91-8.48s1.85-1.5 2.62-2.72c.78-1.22-.15-2.16 1.81-3.24l3.2 3.2c7.97.46 10.88 6.15 12.01 9.67 1.13 3.53-.7 9.07-1.57 13.28z"/><path fill-rule="evenodd" d="M11.92 38.99c-.11-3.02-.9-7.08 5.59-7.09h13c3.15.02 4.65 1.05 5.35 2.54.6 1.3.58 2.95.5 4.55z"/></g><path d="M16.77 15.12c.99-4.72 4.4-1.87 3.04-.5-.39.38-1.53.25-3.04.5z" fill="#505050"/></svg>