<svg xmlns="http://www.w3.org/2000/svg" width="45" height="45" xmlns:v="https://vecta.io/nano"><path d="M18.631 5.869C16.671 6.966 17.6 7.921 16.82 9.16c-.77 1.239-2.031.934-2.621 2.762s-1.83 6.174-4.91 8.611c-1.82 2.214.081 4.245 3.641 5.301 1.67.701 1.421-2.275 4.301-2.65 2.87-.386 3.02-1.015 5.02-3.422 0 0 2.43 1.98-2.9 6.824-2.638 1.672-3.421 3.539-3.553 5.443-4.607.691-3.976 4.242-3.877 6.961h24.439c.08-1.6.1-3.251-.5-4.551-.545-1.161-1.589-2.035-3.508-2.377.894-4.229 2.588-9.634 1.488-13.123-1.13-3.574-4.04-9.353-12.01-9.82l-3.199-3.25z" fill="#5a5a5a" stroke="#323232" stroke-width="1.3"/><path d="M16.77 15.12c.99-4.72 4.4-1.87 3.04-.5-.39.38-1.53.25-3.04.5z" fill="#323232"/></svg>