<svg xmlns="http://www.w3.org/2000/svg" width="45" height="45" fill="#5a5a5a" stroke="#323232" stroke-width="1.3" xmlns:v="https://vecta.io/nano"><path d="M22.5 10.09a1.9 1.9 0 0 0-1.77 1.199l-.02.041a1.9 1.9 0 0 0-.07.25v.039a1.87 1.87 0 0 0-.021.631 1.86 1.86 0 0 0 .211.641l.1.16.01.02.1.141a1.9 1.9 0 0 0 .182.18L20.07 25.25l-3.1-11.211a1.9 1.9 0 0 0-1.771-3.1A1.9 1.9 0 0 0 14.5 14.4l.76 10.35-4.65-8.619a1.9 1.9 0 0 0-2.41-2.631 1.9 1.9 0 0 0 .102 3.539l3.68 10.33c1.987 1.848 2.838 3.3 3.074 4.535-5.565.351-4.849 4.177-4.754 7.057H34.75c.154-3.105.063-6.364-4.336-6.979-.004-.975.551-2.646 2.605-4.613l3.691-10.33a1.9 1.9 0 1 0-2.32-.898l-4.65 8.609.76-10.35a1.9 1.9 0 1 0-2.461-.371l-3.1 11.221-1.16-11.859a1.9 1.9 0 0 0 .301-.34 1.9 1.9 0 0 0 .16-.301l.02-.039a1.9 1.9 0 0 0 .1-1.102v-.029a1.9 1.9 0 0 0-.719-1.109 1.9 1.9 0 0 0-.771-.352 1.93 1.93 0 0 0-.369-.029z"/></svg>