<?xml version="1.0" encoding="UTF-8" standalone="no"?>
<!-- Created with Inkscape (http://www.inkscape.org/) -->

<svg
   xmlns:dc="http://purl.org/dc/elements/1.1/"
   xmlns:cc="http://creativecommons.org/ns#"
   xmlns:rdf="http://www.w3.org/1999/02/22-rdf-syntax-ns#"
   xmlns:svg="http://www.w3.org/2000/svg"
   xmlns="http://www.w3.org/2000/svg"
   xmlns:sodipodi="http://sodipodi.sourceforge.net/DTD/sodipodi-0.dtd"
   xmlns:inkscape="http://www.inkscape.org/namespaces/inkscape"
   width="256"
   height="256"
   viewBox="0 0 67.733332 67.733335"
   version="1.1"
   id="svg8"
   sodipodi:docname="ico.svg"
   inkscape:version="0.92.4 (5da689c313, 2019-01-14)"
   inkscape:export-filename="C:\Projects\github\jschess_react\public\favicon-32x32.png"
   inkscape:export-xdpi="8.625001"
   inkscape:export-ydpi="8.625001">
  <defs
     id="defs2" />
  <sodipodi:namedview
     id="base"
     pagecolor="#ffffff"
     bordercolor="#666666"
     borderopacity="1.0"
     inkscape:pageopacity="0.0"
     inkscape:pageshadow="2"
     inkscape:zoom="1.979899"
     inkscape:cx="110.50491"
     inkscape:cy="165.59541"
     inkscape:document-units="mm"
     inkscape:current-layer="layer1"
     showgrid="false"
     units="px"
     inkscape:window-width="1920"
     inkscape:window-height="1001"
     inkscape:window-x="-9"
     inkscape:window-y="-9"
     inkscape:window-maximized="1" />
  <metadata
     id="metadata5">
    <rdf:RDF>
      <cc:Work
         rdf:about="">
        <dc:format>image/svg+xml</dc:format>
        <dc:type
           rdf:resource="http://purl.org/dc/dcmitype/StillImage" />
        <dc:title></dc:title>
      </cc:Work>
    </rdf:RDF>
  </metadata>
  <g
     inkscape:label="Capa 1"
     inkscape:groupmode="layer"
     id="layer1"
     transform="translate(0,-229.26665)">
    <path
       style="fill:#000000;stroke-width:1"
       d=""
       id="path844"
       inkscape:connector-curvature="0" />
    <path
       style="fill:#0d9ac5;fill-opacity:1;stroke-width:1"
       d="m 9.9108995,295.09866 c -0.9206987,-0.62662 -0.9328159,-0.67387 -0.9750411,-3.80219 l -0.038009,-2.81495 0.3314995,-0.56567 c 0.2301841,-0.39277 0.4903363,-0.63778 0.8512001,-0.80164 0.503389,-0.22857 1.272041,-0.23606 24.482857,-0.23872 l 23.963155,-0.003 0.552754,0.28149 c 0.396123,0.20174 0.635842,0.44102 0.84601,0.84449 0.285744,0.54855 0.292298,0.63417 0.255699,3.33784 -0.04175,3.08336 -0.05553,3.13658 -0.974629,3.7621 l -0.4136,0.28149 H 34.558642 10.324486 Z m 3.2885455,-14.45009 c 0.07301,-2.13364 0.255424,-2.99251 0.951446,-4.47987 0.774645,-1.65538 2.173924,-3.31275 3.628533,-4.29779 0.386493,-0.26172 2.750244,-1.50372 5.252779,-2.76001 4.228531,-2.12273 4.601961,-2.33685 5.284547,-3.03011 0.975982,-0.99126 1.696645,-2.43532 1.861175,-3.72942 0.122989,-0.96738 0.177473,-7.50655 0.06255,-7.50655 -0.03546,0 -0.725127,0.33186 -1.532583,0.73747 -1.578815,0.79308 -2.328092,1.31948 -2.663724,1.87139 -0.116356,0.19133 -0.560779,1.49826 -0.987607,2.90428 -0.426821,1.40601 -0.911578,2.7901 -1.077235,3.07573 -0.500947,0.86377 -1.311596,1.46972 -2.717145,2.03104 -1.764251,0.70457 -2.379274,0.82939 -3.291797,0.6681 -0.631265,-0.11158 -5.073389,-1.9637 -6.731054,-2.80647 -0.755259,-0.38398 -1.6454339,-1.29275 -1.9705154,-2.01168 l -0.294953,-0.65229 -0.034167,-10.12667 -0.034167,-10.12666 0.3103741,-0.63271 c 0.1706999,-0.348 0.6456819,-0.96394 1.0555033,-1.36877 l 0.74514,-0.73604 -1.0526247,-2.12256 c -1.1534193,-2.32582 -1.2599529,-2.79624 -0.8012967,-3.53836 0.4817422,-0.77947 -0.01513,-0.74931 12.2595814,-0.7442 11.060948,0.004 11.216298,0.009 12.761125,0.2866 6.827691,1.23096 11.949959,4.22145 16.215973,9.46724 2.318962,2.85158 4.258664,6.98557 4.988398,10.6316 0.529014,2.64315 0.56373,3.73077 0.564182,17.67433 l 4.31e-4,13.29284 H 34.542156 13.132011 Z m 3.482386,-31.37596 c 2.189665,-0.77256 2.374817,-3.81129 0.298997,-4.90723 -0.500177,-0.26407 -1.758547,-0.25991 -2.269961,0.008 -1.444903,0.75555 -1.93839,2.53232 -1.06467,3.83326 0.390789,0.58187 0.742515,0.85803 1.385613,1.08795 0.598899,0.21409 0.996976,0.20891 1.650021,-0.0214 z"
       id="path857"
       inkscape:connector-curvature="0" />
  </g>
</svg>
