<svg xmlns="http://www.w3.org/2000/svg" width="45" height="45" fill="#f3f3f3" stroke="none" stroke-width="1.3" xmlns:v="https://vecta.io/nano"><path d="M20.18 5.412v.658.049V8.23h-2.676l.053 5.1h2.623v1.623c-5.12-1.438-9.494-.309-11.871 2.172-1.257 1.311-1.955 2.989-1.869 4.748s.953 3.565 2.67 5.145c1.443 1.328 3.081 2.807 4.08 4.498-.446.118-.861.257-1.217.439-.963.493-1.594 1.234-1.945 2.051-.702 1.633-.425 3.493-.377 4.955l.021.629h.629 12.418v-.65h.002v-6.35-1.391V6.07l-.002-.65h-1.881l-.658-.008zm-3.584 15.189c.811.003 1.793.308 2.799.953l-.057 4.635h-1.312c-2.631-1.651-3.499-3.197-3.48-4.086a1.27 1.27 0 0 1 .529-1.047c.343-.267.869-.449 1.521-.455z"/><path d="M25.258 5.412l-.658.008h-1.881v.65.65 24.479 1.391 5.699.65.65h12.418.629l.021-.629c.048-1.462.325-3.322-.377-4.955-.351-.817-.982-1.558-1.945-2.051-.356-.182-.771-.321-1.217-.439.999-1.691 2.637-3.17 4.08-4.498 1.717-1.58 2.584-3.386 2.67-5.145s-.612-3.437-1.869-4.748c-2.377-2.481-6.751-3.61-11.871-2.172V13.33h2.623l.053-5.1h-2.676V6.119 6.07v-.658zm3.584 15.189h.002c.652.006 1.177.188 1.52.455s.521.593.531 1.047c.019.889-.851 2.435-3.482 4.086H26.1l-.057-4.635c1.006-.645 1.988-.95 2.799-.953z" fill="#646464"/></svg>