<svg xmlns="http://www.w3.org/2000/svg" width="45" height="45" fill="#f3f3f3" stroke="#646464" stroke-width="1.3" xmlns:v="https://vecta.io/nano"><path d="M20.83 6.07v.051 2.816h-2.67l.039 3.877h2.631v3.133C10.2 12.305 3.081 20.885 9.551 26.955c1.516 1.423 3.315 3.064 4.365 5.059-4.33.778-3.704 4.259-3.615 6.926H34.75c.146-2.948.075-6.036-3.697-6.867 1.045-2.021 2.866-3.68 4.396-5.117 6.47-6.071-.649-14.652-11.279-11.02v-3.131h2.619l.051-3.867h-2.67V6.07c-1.113.03-2.227.013-3.34 0zm7.759 14.185c3.093.028 4.503 3.462-1.211 7.029h-2.18l-.07-5.785c1.206-.875 2.423-1.242 3.461-1.244zm-11.999-.022c1.038.002 2.255.369 3.461 1.244l-.07 5.785h-2.18c-5.714-3.567-4.304-7.002-1.211-7.029z"/></svg>