<svg xmlns="http://www.w3.org/2000/svg" width="45" height="45" xmlns:v="https://vecta.io/nano"><path d="M18.631 5.85c-1.96 1.108-1.031 2.071-1.811 3.322-.77 1.251-2.031.945-2.621 2.791s-1.83 6.234-4.91 8.695c-1.82 2.236.081 4.287 3.641 5.354 1.67.708 1.421-2.298 4.301-2.678 2.87-.39 3.02-1.025 5.02-3.455 0 0 2.43 1.999-2.9 6.891-2.529 1.619-3.356 3.404-3.537 5.234-4.624.679-3.992 4.245-3.893 6.967h24.449c.141-3.014.079-6.181-3.955-6.926.907-4.224 2.503-9.545 1.426-12.996-1.13-3.61-4.04-9.446-12.01-9.918L18.631 5.85z" fill="#f3f3f3" stroke="#646464" stroke-width="1.3"/><path fill="#646464" d="M16.77 15.1c.99-4.72 4.4-1.87 3.04-.51-.4.4-1.53.26-3.04.51z"/></svg>