<?xml version="1.0" encoding="UTF-8" standalone="no"?>
<svg
   xmlns:dc="http://purl.org/dc/elements/1.1/"
   xmlns:cc="http://creativecommons.org/ns#"
   xmlns:rdf="http://www.w3.org/1999/02/22-rdf-syntax-ns#"
   xmlns:svg="http://www.w3.org/2000/svg"
   xmlns="http://www.w3.org/2000/svg"
   xmlns:sodipodi="http://sodipodi.sourceforge.net/DTD/sodipodi-0.dtd"
   xmlns:inkscape="http://www.inkscape.org/namespaces/inkscape"
   width="45"
   height="45"
   version="1.1"
   id="svg8"
   sodipodi:docname="wn.svg"
   inkscape:version="0.92.4 (5da689c313, 2019-01-14)">
  <metadata
     id="metadata14">
    <rdf:RDF>
      <cc:Work
         rdf:about="">
        <dc:format>image/svg+xml</dc:format>
        <dc:type
           rdf:resource="http://purl.org/dc/dcmitype/StillImage" />
      </cc:Work>
    </rdf:RDF>
  </metadata>
  <defs
     id="defs12" />
  <sodipodi:namedview
     pagecolor="#ffffff"
     bordercolor="#666666"
     borderopacity="1"
     objecttolerance="10"
     gridtolerance="10"
     guidetolerance="10"
     inkscape:pageopacity="0"
     inkscape:pageshadow="2"
     inkscape:window-width="1920"
     inkscape:window-height="1001"
     id="namedview10"
     showgrid="false"
     inkscape:zoom="7.4167645"
     inkscape:cx="21.013668"
     inkscape:cy="24.347762"
     inkscape:window-x="-9"
     inkscape:window-y="-9"
     inkscape:window-maximized="1"
     inkscape:current-layer="svg8" />
  <path
     d="M15.77 31.97c.05-2 .76-3.96 3.58-5.72 5.33-4.77 2.9-6.72 2.9-6.72-2 2.37-2.15 2.99-5.02 3.37-2.88.37-2.63 3.3-4.3 2.61-3.56-1.04-5.46-3.04-3.64-5.22 3.08-2.4 4.32-6.68 4.91-8.48s1.85-1.5 2.62-2.72c.78-1.22-.15-2.16 1.81-3.24l3.2 3.2c7.97.46 10.88 6.15 12.01 9.67 1.13 3.53-.7 9.1-1.57 13.3z"
     id="path2"
     stroke-width="1.3"
     stroke="#646464"
     fill="#f3f3f3"
     style="stroke:#aaaaaa;stroke-opacity:1" />
  <path
     fill="#646464"
     d="M16.77 15.1c.99-4.72 4.4-1.87 3.04-.51-.4.4-1.53.26-3.04.51z"
     id="path4"
     style="fill:#aaaaaa;fill-opacity:1" />
  <path
     fill="#f3f3f3"
     fill-rule="evenodd"
     stroke="#646464"
     stroke-width="1.3"
     d="M11.92 38.97c-.11-3.02-.9-7.09 5.59-7.09h13c5.92.03 6.02 3.66 5.86 7.09z"
     id="path6"
     style="stroke:#aaaaaa;stroke-opacity:1" />
</svg>
