<?xml version="1.0" encoding="UTF-8" standalone="no"?>
<svg
   xmlns:dc="http://purl.org/dc/elements/1.1/"
   xmlns:cc="http://creativecommons.org/ns#"
   xmlns:rdf="http://www.w3.org/1999/02/22-rdf-syntax-ns#"
   xmlns:svg="http://www.w3.org/2000/svg"
   xmlns="http://www.w3.org/2000/svg"
   xmlns:sodipodi="http://sodipodi.sourceforge.net/DTD/sodipodi-0.dtd"
   xmlns:inkscape="http://www.inkscape.org/namespaces/inkscape"
   width="45"
   height="45"
   fill="#f3f3f3"
   stroke="#646464"
   stroke-width="1.3"
   version="1.1"
   id="svg6"
   sodipodi:docname="wq.svg"
   inkscape:version="0.92.4 (5da689c313, 2019-01-14)">
  <metadata
     id="metadata12">
    <rdf:RDF>
      <cc:Work
         rdf:about="">
        <dc:format>image/svg+xml</dc:format>
        <dc:type
           rdf:resource="http://purl.org/dc/dcmitype/StillImage" />
      </cc:Work>
    </rdf:RDF>
  </metadata>
  <defs
     id="defs10" />
  <sodipodi:namedview
     pagecolor="#ffffff"
     bordercolor="#666666"
     borderopacity="1"
     objecttolerance="10"
     gridtolerance="10"
     guidetolerance="10"
     inkscape:pageopacity="0"
     inkscape:pageshadow="2"
     inkscape:window-width="1920"
     inkscape:window-height="1001"
     id="namedview8"
     showgrid="false"
     inkscape:zoom="5.2444444"
     inkscape:cx="22.5"
     inkscape:cy="22.5"
     inkscape:window-x="-9"
     inkscape:window-y="-9"
     inkscape:window-maximized="1"
     inkscape:current-layer="svg6" />
  <path
     d="M22.5 10.06a1.9 1.9 0 0 0-1.52.77 1.9 1.9 0 0 0-.25.44l-.02.04a1.9 1.9 0 0 0-.07.25v.04a1.87 1.87 0 0 0-.02.63 1.86 1.86 0 0 0 .21.64l.1.16.01.02.1.13h0a1.9 1.9 0 0 0 .18.19l-1.15 11.86L16.97 14a1.9 1.9 0 1 0-2.47.37l.76 10.35-4.65-8.62a1.9 1.9 0 1 0-2.31.91l3.68 10.33c2 1.86 2.85 3.31 3.08 4.55l15.35.16c-.04-.96.49-2.68 2.61-4.71l3.69-10.33a1.9 1.9 0 1 0-2.32-.9l-4.65 8.61.76-10.35a1.9 1.9 0 1 0-2.46-.37l-3.1 11.22-1.16-11.86a1.9 1.9 0 0 0 .3-.34 1.9 1.9 0 0 0 .16-.3l.02-.04a1.9 1.9 0 0 0 .1-1.1v-.03a1.9 1.9 0 0 0-1.49-1.46 1.93 1.93 0 0 0-.37-.04z"
     id="path2"
     style="stroke:#aaaaaa;stroke-opacity:1" />
  <path
     fill-rule="evenodd"
     d="M10.3 38.94c-.1-3.02-.9-7.09 5.6-7.09h13c5.91.03 6.02 3.66 5.85 7.09z"
     id="path4"
     style="stroke:#aaaaaa;stroke-opacity:1" />
</svg>
