<svg xmlns="http://www.w3.org/2000/svg" width="45" height="45" fill="#f3f3f3" stroke="#646464" stroke-width="1.3" xmlns:v="https://vecta.io/nano"><path d="M22.5 10.051v.01a1.9 1.9 0 0 0-1.52.77 1.9 1.9 0 0 0-.25.439l-.02.041a1.9 1.9 0 0 0-.07.25v.039a1.87 1.87 0 0 0-.021.631 1.86 1.86 0 0 0 .211.639l.1.16.01.021.1.129a1.9 1.9 0 0 0 .182.189L20.07 25.23 16.971 14a1.9 1.9 0 1 0-2.471.369l.76 10.352-4.65-8.621a1.9 1.9 0 1 0-2.309.91l3.68 10.33c1.997 1.857 2.847 3.306 3.078 4.545-5.569.349-4.853 4.175-4.758 7.055H34.75c.154-3.105.063-6.362-4.336-6.977-.007-.974.544-2.649 2.605-4.623l3.691-10.33a1.9 1.9 0 1 0-2.32-.9l-4.65 8.611.76-10.352A1.9 1.9 0 1 0 28.039 14l-3.1 11.221-1.16-11.861a1.9 1.9 0 0 0 .301-.34 1.9 1.9 0 0 0 .16-.299l.02-.041a1.9 1.9 0 0 0 .1-1.1v-.029a1.9 1.9 0 0 0-1.49-1.461 1.93 1.93 0 0 0-.369-.039z"/></svg>